<svg width="35" height="27" viewBox="0 0 35 27" fill="none" xmlns="http://www.w3.org/2000/svg">
<path d="M33.7778 5.10004C33.6743 4.96558 33.5414 4.85661 33.3892 4.7815C33.237 4.70638 33.0697 4.66712 32.9 4.66671H7.23335L6.73335 3.07782C6.67843 2.90722 6.58305 2.75244 6.45536 2.62668C6.32766 2.50092 6.17144 2.40791 6.00002 2.3556L1.44447 0.955598C1.30439 0.912554 1.15721 0.897521 1.01132 0.911358C0.865433 0.925195 0.7237 0.967631 0.594214 1.03624C0.332705 1.17481 0.136953 1.41159 0.0500209 1.69449C-0.0369112 1.97738 -0.00790201 2.28323 0.130667 2.54474C0.269235 2.80625 0.506012 3.002 0.78891 3.08893L4.7778 4.31115L9.86669 20.3889L8.05558 21.8778L7.91113 22.0223C7.46324 22.5409 7.20948 23.199 7.19327 23.8841C7.17705 24.5692 7.39939 25.2386 7.82224 25.7778C8.12509 26.1461 8.50992 26.4384 8.94595 26.6313C9.38199 26.8243 9.85712 26.9125 10.3334 26.8889H28.8778C29.1725 26.8889 29.4551 26.7719 29.6635 26.5635C29.8718 26.3551 29.9889 26.0725 29.9889 25.7778C29.9889 25.4831 29.8718 25.2005 29.6635 24.9921C29.4551 24.7838 29.1725 24.6667 28.8778 24.6667H10.1556C10.0276 24.6623 9.90297 24.625 9.79364 24.5584C9.68431 24.4918 9.59401 24.3981 9.53146 24.2864C9.46891 24.1747 9.43622 24.0488 9.43655 23.9208C9.43688 23.7927 9.47022 23.667 9.53335 23.5556L12.2111 21.3334H29.3556C29.6094 21.3408 29.8581 21.261 30.0602 21.1074C30.2624 20.9537 30.4059 20.7355 30.4667 20.4889L34.0222 6.04449C34.056 5.87884 34.0516 5.70767 34.0092 5.544C33.9669 5.38034 33.8877 5.2285 33.7778 5.10004Z" fill="#A1C5E9"/>
</svg>
