<svg width="28" height="34" viewBox="0 0 28 34" fill="none" xmlns="http://www.w3.org/2000/svg">
<path d="M4.16667 0.333252H23.3333C24.4384 0.333252 25.4982 0.772239 26.2796 1.55364C27.061 2.33504 27.5 3.39485 27.5 4.49992V15.8549C25.6008 15.2396 23.5685 15.161 21.6275 15.6279C19.6865 16.0947 17.9122 17.0888 16.5006 18.5005C15.0889 19.9121 14.0948 21.6864 13.6279 23.6274C13.1611 25.5685 13.2397 27.6007 13.855 29.4999H2.5C2.5 29.9419 2.6756 30.3659 2.98816 30.6784C3.30072 30.991 3.72464 31.1666 4.16667 31.1666H14.5533C15.0305 32.081 15.6355 32.9228 16.35 33.6666H4.16667C3.0616 33.6666 2.00179 33.2276 1.22039 32.4462C0.438987 31.6648 0 30.605 0 29.4999V4.49992C0 3.39485 0.438987 2.33504 1.22039 1.55364C2.00179 0.772239 3.0616 0.333252 4.16667 0.333252ZM6.66667 5.33325C6.22464 5.33325 5.80072 5.50885 5.48816 5.82141C5.17559 6.13397 5 6.55789 5 6.99992V8.66659C5 9.10861 5.17559 9.53254 5.48816 9.8451C5.80072 10.1577 6.22464 10.3333 6.66667 10.3333H20C20.442 10.3333 20.8659 10.1577 21.1785 9.8451C21.4911 9.53254 21.6667 9.10861 21.6667 8.66659V6.99992C21.6667 6.55789 21.4911 6.13397 21.1785 5.82141C20.8659 5.50885 20.442 5.33325 20 5.33325H6.66667Z" fill="#A1C5E9"/>
</svg>
